[img]http://leetleech.org/images/62527870906803600256.jpg[/img]

User Rating:
6.3/10   1,666 votes 

Director:
Stephen Milburn Anderson

Writer (WGA):
Stephen Milburn Anderson (written by)

Genre:
Comedy | Crime | Thriller 

Tagline:
Love for money is the... 

Plot:
A man meets up with two "good guys" to recover what is unlawfully his, taking them on his whirlwind ride, doing things they never would have imagined, just to survive

[img]http://leetleech.org/images/42107790465518131247.jpg[/img]

Video
ID                               : 0
Format                           : MPEG-4 Visual
Format profile                   : Advanced Simple@L5
Format settings, BVOP            : Yes
Format settings, QPel            : No
Format settings, GMC             : No warppoints
Format settings, Matrix          : Default (H.263)
Muxing mode                      : Packed bitstream
Codec ID                         : XVID
Codec ID/Hint                    : XviD
Duration                         : 1h 48mn
Bit rate                         : 766 Kbps
Width                            : 512 pixels
Height                           : 288 pixels
Display aspect ratio             : 16:9
Frame rate                       : 29.970 fps
Resolution                       : 8 bits
Colorimetry                      : 4:2:0
Scan type                        : Progressive
Bits/(Pixel*Frame)               : 0.173
Stream size                      : 593 MiB (85%)
Writing library                  : XviD 1.2.1 (UTC 2008-12-04)

Audio
ID                               : 1
Format                           : MPEG Audio
Format version                   : Version 1
Format profile                   : Layer 3
Mode                             : Joint stereo
Codec ID                         : 55
Codec ID/Hint                    : MP3
Duration                         : 1h 48mn
Bit rate mode                    : Constant
Bit rate                         : 128 Kbps
Channel(s)                       : 2 channels
Sampling rate                    : 48.0 KHz
Stream size                      : 99.0 MiB (14%)
Alignment                        : Aligned on interleaves
Interleave, duration             : 33 ms (1.00 video frame)
Interleave, preload duration     : 504 ms

URL: http://www.imdb.com/title/tt1106860/
TRAILER: http://www.imdb.com/video/imdb/vi3783197721/